HIERARCHY
ROOT WildBoar_ROOTSHJnt
{
	OFFSET 0.000000 44.410820 68.815338
	CHANNELS 6 Xposition Yposition Zposition Xrotation Yrotation Zrotation
	JOINT WildBoar_Spine_01SHJnt
	{
		OFFSET -0.000000 -13.726324 -0.500702
		CHANNELS 3 Xrotation Yrotation Zrotation
		JOINT WildBoar_Spine_02SHJnt
		{
			OFFSET -0.000000 -13.721075 -0.511734
			CHANNELS 3 Xrotation Yrotation Zrotation
			JOINT WildBoar_Spine_03SHJnt
			{
				OFFSET -0.000000 -13.733017 -0.763184
				CHANNELS 3 Xrotation Yrotation Zrotation
				JOINT WildBoar_Spine_04SHJnt
				{
					OFFSET 0.000000 -13.726805 1.066475
					CHANNELS 3 Xrotation Yrotation Zrotation
					JOINT WildBoar_Spine_TopSHJnt
					{
						OFFSET 0.000000 -13.726805 0.709183
						CHANNELS 3 Xrotation Yrotation Zrotation
						JOINT WildBoar_l_Clavicle_01_01SHJnt
						{
							OFFSET 8.670297 0.000000 0.000000
							CHANNELS 3 Xrotation Yrotation Zrotation
							JOINT WildBoar_l_FrontLeg_HipSHJnt
							{
								OFFSET 3.164961 0.548840 -12.164703
								CHANNELS 3 Xrotation Yrotation Zrotation
								JOINT WildBoar_l_FrontLeg_Knee1SHJnt
								{
									OFFSET 0.316314 -0.817221 -32.444130
									CHANNELS 3 Xrotation Yrotation Zrotation
									JOINT WildBoar_l_FrontLeg_Knee2SHJnt
									{
										OFFSET 0.171660 1.067869 -17.603088
										CHANNELS 3 Xrotation Yrotation Zrotation
										JOINT WildBoar_l_FrontLeg_AnkleSHJnt
										{
											OFFSET 0.012912 -0.586981 -1.322436
											CHANNELS 3 Xrotation Yrotation Zrotation
											JOINT WildBoar_l_FrontLeg_BallSHJnt
											{
												OFFSET -0.004807 -3.825893 -5.280976
												CHANNELS 3 Xrotation Yrotation Zrotation
												JOINT WildBoar_l_FrontLeg_ToeSHJnt
												{
													OFFSET -0.006160 -4.905069 -0.000002
													CHANNELS 3 Xrotation Yrotation Zrotation
													End Site
													{
														OFFSET 4.905067 -0.006161 -0.000003
													}
												}
											}
										}
									}
								}
							}
						}
						JOINT WildBoar_r_Clavicle_01_01SHJnt
						{
							OFFSET -8.670297 0.000000 0.000000
							CHANNELS 3 Xrotation Yrotation Zrotation
							JOINT WildBoar_r_FrontLeg_HipSHJnt
							{
								OFFSET -3.164964 0.548840 -12.164703
								CHANNELS 3 Xrotation Yrotation Zrotation
								JOINT WildBoar_r_FrontLeg_Knee1SHJnt
								{
									OFFSET -0.316322 -0.817221 -32.444130
									CHANNELS 3 Xrotation Yrotation Zrotation
									JOINT WildBoar_r_FrontLeg_Knee2SHJnt
									{
										OFFSET -0.171665 1.067869 -17.603088
										CHANNELS 3 Xrotation Yrotation Zrotation
										JOINT WildBoar_r_FrontLeg_AnkleSHJnt
										{
											OFFSET -0.012913 -0.586981 -1.322436
											CHANNELS 3 Xrotation Yrotation Zrotation
											JOINT WildBoar_r_FrontLeg_BallSHJnt
											{
												OFFSET 0.004806 -3.825893 -5.280976
												CHANNELS 3 Xrotation Yrotation Zrotation
												JOINT WildBoar_r_FrontLeg_ToeSHJnt
												{
													OFFSET 0.006160 -4.905069 -0.000002
													CHANNELS 3 Xrotation Yrotation Zrotation
													End Site
													{
														OFFSET 4.905068 0.006161 -0.000002
													}
												}
											}
										}
									}
								}
							}
						}
						JOINT WildBoar_Neck_01SHJnt
						{
							OFFSET -0.000000 -12.476246 -2.105774
							CHANNELS 3 Xrotation Yrotation Zrotation
							JOINT WildBoar_Neck_02SHJnt
							{
								OFFSET 0.000000 -10.017231 1.165779
								CHANNELS 3 Xrotation Yrotation Zrotation
								JOINT WildBoar_Neck_TopSHJnt
								{
									OFFSET 0.000000 -9.610825 0.768044
									CHANNELS 3 Xrotation Yrotation Zrotation
									JOINT WildBoar_Head_JawSHJnt
									{
										OFFSET -0.000001 -11.273338 -4.973049
										CHANNELS 3 Xrotation Yrotation Zrotation
										JOINT WildBoar_Head_JawEndSHJnt
										{
											OFFSET -0.000002 -22.190353 -15.124695
											CHANNELS 3 Xrotation Yrotation Zrotation
											End Site
											{
												OFFSET -0.000002 -22.110291 -15.241497
											}
										}
									}
									JOINT WildBoar_Head_TopSHJnt
									{
										OFFSET 0.000002 -15.944977 17.523094
										CHANNELS 3 Xrotation Yrotation Zrotation
										JOINT WildBoar_l_Ear_01_01SHJnt
										{
											OFFSET 10.362524 11.406597 -2.807991
											CHANNELS 3 Xrotation Yrotation Zrotation
											JOINT WildBoar_l_Ear_01_02SHJnt
											{
												OFFSET 6.918999 -0.514683 5.827293
												CHANNELS 3 Xrotation Yrotation Zrotation
												JOINT WildBoar_l_Ear_01_03SHJnt
												{
													OFFSET 5.957382 0.355659 6.469810
													CHANNELS 3 Xrotation Yrotation Zrotation
													End Site
													{
														OFFSET 5.020468 -6.741234 -2.612671
													}
												}
											}
										}
										JOINT WildBoar_r_Ear_01_01SHJnt
										{
											OFFSET -10.362526 11.406597 -2.807991
											CHANNELS 3 Xrotation Yrotation Zrotation
											JOINT WildBoar_r_Ear_01_02SHJnt
											{
												OFFSET -6.918997 -0.514683 5.827293
												CHANNELS 3 Xrotation Yrotation Zrotation
												JOINT WildBoar_r_Ear_01_03SHJnt
												{
													OFFSET -5.957380 0.355659 6.469810
													CHANNELS 3 Xrotation Yrotation Zrotation
													End Site
													{
														OFFSET -5.020468 -6.741234 -2.612671
													}
												}
											}
										}
										JOINT WildBoar_Nose_01_01SHJnt
										{
											OFFSET 0.146534 -15.145607 -20.472496
											CHANNELS 3 Xrotation Yrotation Zrotation
											JOINT WildBoar_Nose_01_02SHJnt
											{
												OFFSET -0.000001 -9.738365 -5.125526
												CHANNELS 3 Xrotation Yrotation Zrotation
												End Site
												{
													OFFSET 0.000001 -6.131317 9.138596
												}
											}
										}
									}
								}
							}
						}
					}
				}
			}
		}
	}
	JOINT WildBoar_l_HindLeg_HipSHJnt
	{
		OFFSET 11.907801 0.071259 -9.892372
		CHANNELS 3 Xrotation Yrotation Zrotation
		JOINT WildBoar_l_HindLeg_Knee1SHJnt
		{
			OFFSET -1.208079 8.601734 -32.196701
			CHANNELS 3 Xrotation Yrotation Zrotation
			JOINT WildBoar_l_HindLeg_Knee2SHJnt
			{
				OFFSET 0.929813 -5.149776 -18.902822
				CHANNELS 3 Xrotation Yrotation Zrotation
				JOINT WildBoar_l_HindLeg_AnkleSHJnt
				{
					OFFSET -0.016349 -0.419094 -2.601883
					CHANNELS 3 Xrotation Yrotation Zrotation
					JOINT WildBoar_l_HindLeg_BallSHJnt
					{
						OFFSET -0.062816 -2.064716 -5.221140
						CHANNELS 3 Xrotation Yrotation Zrotation
						JOINT WildBoar_l_HindLeg_ToeSHJnt
						{
							OFFSET 0.563698 -5.159508 -0.000093
							CHANNELS 3 Xrotation Yrotation Zrotation
							End Site
							{
								OFFSET 5.159507 0.563698 0.000025
							}
						}
					}
				}
			}
		}
	}
	JOINT WildBoar_r_HindLeg_HipSHJnt
	{
		OFFSET -11.907801 0.071259 -9.892372
		CHANNELS 3 Xrotation Yrotation Zrotation
		JOINT WildBoar_r_HindLeg_Knee1SHJnt
		{
			OFFSET 1.208084 8.601734 -32.196701
			CHANNELS 3 Xrotation Yrotation Zrotation
			JOINT WildBoar_r_HindLeg_Knee2SHJnt
			{
				OFFSET -0.929811 -5.149776 -18.902822
				CHANNELS 3 Xrotation Yrotation Zrotation
				JOINT WildBoar_r_HindLeg_AnkleSHJnt
				{
					OFFSET 0.016349 -0.419094 -2.601883
					CHANNELS 3 Xrotation Yrotation Zrotation
					JOINT WildBoar_r_HindLeg_BallSHJnt
					{
						OFFSET 0.062817 -2.064716 -5.221139
						CHANNELS 3 Xrotation Yrotation Zrotation
						JOINT WildBoar_r_HindLeg_ToeSHJnt
						{
							OFFSET -0.563698 -5.159508 -0.000092
							CHANNELS 3 Xrotation Yrotation Zrotation
							End Site
							{
								OFFSET 5.159507 -0.563698 -0.000023
							}
						}
					}
				}
			}
		}
	}
	JOINT WildBoar_Tail_01_01SHJnt
	{
		OFFSET 0.000000 20.717888 9.172180
		CHANNELS 3 Xrotation Yrotation Zrotation
		JOINT WildBoar_Tail_01_02SHJnt
		{
			OFFSET -0.000000 5.092255 -8.034218
			CHANNELS 3 Xrotation Yrotation Zrotation
			JOINT WildBoar_Tail_01_03SHJnt
			{
				OFFSET -0.000000 -0.708420 -11.714390
				CHANNELS 3 Xrotation Yrotation Zrotation
				End Site
				{
					OFFSET -0.000000 11.707321 -0.816906
				}
			}
		}
	}
}
MOTION
Frames: 4
Frame Time: 0.033333
0.000000 44.410820 68.815338 -0.000000 0.000000 -0.000000 0.000137 -0.000073 0.000002 -0.000000 0.000000 0.000000 0.000000 -0.000010 0.000000 -0.000000 -0.000000 -0.000000 -0.000000 -0.000000 -0.000000 -0.000000 0.000000 -0.000000 -0.000002 0.000007 0.000171 0.000006 -0.000004 0.000003 0.000000 0.000002 0.000001 0.000003 -0.000002 0.000001 -0.000000 -0.000014 0.000000 0.000000 -0.000000 0.000000 -0.000000 0.000000 -0.000000 -0.000001 -0.000003 -0.000061 -0.000000 0.000002 -0.000007 -0.000003 0.000005 -0.000002 0.000000 -0.000002 -0.000003 0.000000 -0.000020 -0.000000 -0.000000 -0.000000 -0.000000 0.000010 -0.087316 0.013233 0.000009 -0.108351 0.016958 0.000010 -0.060919 0.010436 -16.076718 0.000007 -0.000003 -0.000000 0.000000 0.000000 0.000010 -0.000008 -0.000006 -0.000002 0.000003 0.000003 -0.000003 0.000008 0.000003 -0.000001 0.000006 0.000002 -0.000002 -0.000001 -0.000000 0.000005 -0.000002 -0.000007 -0.000004 0.000001 0.000002 -0.000000 0.000000 0.000000 -0.000003 0.000001 0.000001 0.000001 0.000007 0.000001 -0.000006 -0.000003 -0.000001 0.000007 0.000004 -0.000005 -0.000000 -0.000002 0.000001 -0.000000 0.000004 -0.000000 0.000000 0.000000 -0.000000 0.000004 -0.000014 -0.000001 -0.000006 -0.000001 0.000002 0.000007 -0.000004 0.000004 -0.000000 0.000005 -0.000002 0.000001 0.000006 0.000000 -0.000000 0.000000 0.000000 -0.000017 -0.000002 -0.000005 0.000005 0.000000 0.000000 -0.000000 0.000000 0.000000 
0.000000 44.428478 68.715561 0.026733 0.000000 -0.000000 0.070760 -0.000000 0.000000 -0.003124 0.000000 0.000000 -0.064280 -0.000010 -0.000000 -0.138245 -0.000000 -0.000001 0.134992 0.000000 0.000001 0.000000 0.000000 0.000000 0.281074 -0.000296 0.003325 -0.948462 0.000105 -0.009250 0.615093 0.000042 0.005994 0.025594 0.000278 0.000146 -0.000000 -0.000053 0.000000 -0.000000 -0.000000 0.000000 0.000000 0.000000 0.000000 0.281214 0.000226 -0.003371 -0.948456 -0.000100 0.009247 0.615094 -0.000038 -0.005994 0.025589 -0.000195 -0.000146 0.000000 -0.000085 -0.000000 -0.000000 -0.000000 -0.000000 0.247263 -0.130381 -0.014792 0.297819 -0.165813 -0.021215 0.343807 -0.099745 -0.017440 -16.076730 -0.000006 -0.000005 -0.000000 0.000000 0.000000 0.000009 -0.000008 -0.000006 -0.053317 -0.064110 0.057839 -0.056422 -0.063577 0.055440 -0.000003 0.000009 0.000002 0.000007 -0.000008 -0.000003 0.000007 0.000007 0.000003 -0.000003 0.000004 0.000007 0.000003 -0.000000 -0.000000 0.000002 0.000001 0.000001 0.270062 0.050354 0.003202 -0.837582 -0.134555 -0.005521 0.305485 0.060645 0.006366 0.235143 0.023615 -0.005330 -0.000000 0.000004 -0.000000 0.000000 -0.000000 -0.000000 0.270061 -0.050347 -0.003202 -0.837587 0.134556 0.005518 0.305487 -0.060642 -0.006369 0.235146 -0.023612 0.005333 0.000001 0.000006 0.000000 0.000000 0.000000 0.000000 -0.000015 -0.000002 -0.000005 0.009268 -0.120362 0.046889 -0.000001 0.000000 0.000000 
0.000000 44.478817 68.435135 0.101902 0.000000 -0.000000 0.261366 0.000021 0.000002 -0.011247 -0.000000 -0.000000 -0.238026 -0.000010 -0.000000 -0.513281 -0.000000 -0.000000 0.501216 0.000000 0.000000 0.000000 0.000000 0.000000 1.514046 -0.001221 0.015499 -4.869678 0.002141 -0.047421 3.319102 0.000949 0.032340 -0.048246 0.000333 -0.000602 0.000000 0.000130 0.000000 -0.000000 -0.000000 0.000000 0.000000 0.000000 0.000000 1.514046 0.001207 -0.016029 -4.869685 -0.002140 0.047415 3.319103 -0.000946 -0.032348 -0.048261 -0.000252 0.000603 0.000000 -0.000269 -0.000000 -0.000000 -0.000000 -0.000000 0.937589 -0.251164 -0.093711 1.127105 -0.328287 -0.126701 1.303438 -0.209365 -0.093559 -16.076713 -0.000000 0.000003 0.000002 -0.000000 -0.000000 0.000009 -0.000008 -0.000006 -0.201746 -0.243316 0.218949 -0.213560 -0.241258 0.209838 -0.000001 0.000009 -0.000002 -0.000003 -0.000003 -0.000001 0.000006 0.000009 -0.000002 -0.000003 0.000001 0.000012 -0.000003 0.000000 -0.000000 -0.000005 0.000001 0.000001 0.986873 0.185247 0.010661 -3.080198 -0.494266 -0.029950 1.086460 0.218996 0.023101 0.904827 0.090755 -0.021050 -0.000000 0.000004 0.000000 0.000000 -0.000000 -0.000000 0.986874 -0.185227 -0.010662 -3.080201 0.494266 0.029951 1.086464 -0.219002 -0.023097 0.904829 -0.090755 0.021050 0.000001 0.000006 0.000000 -0.000000 0.000000 0.000000 -0.000017 -0.000002 -0.000005 0.035003 -0.454041 0.176978 -0.000001 0.000000 -0.000000 
0.000000 44.556534 68.000618 0.218448 0.000000 -0.000000 0.541164 0.000000 0.000000 -0.022319 -0.000000 0.000003 -0.493698 -0.000010 -0.000000 -1.068877 -0.000000 -0.000001 1.043818 0.000000 -0.000002 0.000000 0.000000 -0.000000 1.301857 -0.002618 0.015981 -4.913922 0.002181 -0.047846 4.114748 0.001570 0.040066 -0.616544 -0.001647 -0.005295 0.395773 0.003089 -0.002627 -0.000000 0.000000 0.000000 0.000000 0.000000 -0.000000 1.301857 0.002625 -0.015658 -4.913922 -0.002180 0.047845 4.114749 -0.001566 -0.040067 -0.616545 0.001738 0.005295 0.395773 -0.003217 0.002627 -0.000000 -0.000000 -0.000000 1.998709 -0.438293 -0.216867 2.395903 -0.583430 -0.285463 2.777494 -0.381397 -0.205540 -16.076715 0.000007 -0.000003 0.000002 0.000000 -0.000000 0.000012 -0.000008 -0.000006 -0.428698 -0.519331 0.465436 -0.453912 -0.514943 0.445980 -0.000006 -0.000001 0.000001 -0.000006 0.000000 -0.000001 0.000000 -0.000001 -0.000002 -0.000006 0.000003 0.000005 -0.000003 0.000000 -0.000000 0.000003 0.000001 0.000001 1.995393 0.378251 0.018560 -6.344986 -1.015480 -0.090637 2.114187 0.435751 0.046789 1.960121 0.196140 -0.047396 -0.000000 0.000004 0.000000 0.000000 0.000000 -0.000000 1.995394 -0.378251 -0.018561 -6.345002 1.015477 0.090641 2.114187 -0.435748 -0.046787 1.960122 -0.196137 0.047394 0.000001 0.000006 0.000000 0.000000 -0.000000 0.000001 -0.000019 -0.000002 -0.000005 0.074297 -0.962234 0.375246 -0.000000 -0.000000 0.000000 
